<svg width="377" height="368" viewBox="0 0 377 368" fill="none" xmlns="http://www.w3.org/2000/svg">
<g filter="url(#filter0_d_1538_1738)">
<path d="M83.0694 9H296.433L307.271 26.006H367.325L367.803 51.6087L367.325 334.145H268.235H225.697L194.669 359H143.122H104.588H34.5248L9.00287 328.565V36.9009L53.6834 38.4464L83.0694 9Z" fill="url(#paint0_linear_1538_1738)" fill-opacity="0.52" shape-rendering="crispEdges"/>
<path d="M83.0694 9H296.433L307.271 26.006H367.325L367.803 51.6087L367.325 334.145H268.235H225.697L194.669 359H143.122H104.588H34.5248L9.00287 328.565V36.9009L53.6834 38.4464L83.0694 9Z" stroke="url(#paint1_radial_1538_1738)" stroke-width="2" shape-rendering="crispEdges"/>
</g>
<path fill-rule="evenodd" clip-rule="evenodd" d="M354.312 335.337H365.894H367.999H368V321.464H365.894V333.203H354.312V335.337Z" fill="#727FF4"/>
<path fill-rule="evenodd" clip-rule="evenodd" d="M21.6885 36.3911H10.1058H8.00067H7.99999V50.2648H10.1058V38.5255H21.6885V36.3911Z" fill="#727FF4"/>
<defs>
<filter id="filter0_d_1538_1738" x="0.00292969" y="0" width="376.8" height="368" filterUnits="userSpaceOnUse" color-interpolation-filters="sRGB">
<feFlood flood-opacity="0" result="BackgroundImageFix"/>
<feColorMatrix in="SourceAlpha" type="matrix" values="0 0 0 0 0 0 0 0 0 0 0 0 0 0 0 0 0 0 127 0" result="hardAlpha"/>
<feOffset/>
<feGaussianBlur stdDeviation="4"/>
<feComposite in2="hardAlpha" operator="out"/>
<feColorMatrix type="matrix" values="0 0 0 0 0.207843 0 0 0 0 0.231373 0 0 0 0 0.866667 0 0 0 1 0"/>
<feBlend mode="normal" in2="BackgroundImageFix" result="effect1_dropShadow_1538_1738"/>
<feBlend mode="normal" in="SourceGraphic" in2="effect1_dropShadow_1538_1738" result="shape"/>
</filter>
<linearGradient id="paint0_linear_1538_1738" x1="182.423" y1="9" x2="182.423" y2="347.84" gradientUnits="userSpaceOnUse">
<stop stop-color="#163D87" stop-opacity="0"/>
<stop offset="0.714157" stop-color="#0C1E7E"/>
</linearGradient>
<radialGradient id="paint1_radial_1538_1738" cx="0" cy="0" r="1" gradientUnits="userSpaceOnUse" gradientTransform="translate(182.253 56.9695) rotate(90) scale(117.851 176.501)">
<stop offset="0.249524" stop-color="#727FF4"/>
<stop offset="0.497183" stop-color="#2745E1"/>
</radialGradient>
</defs>
</svg>
