<svg width="250" height="250" viewBox="0 0 250 250" fill="none" xmlns="http://www.w3.org/2000/svg">
<path d="M196.961 114.128C187.884 117.503 181.615 125.748 180.654 135.143C180.538 135.91 180.538 136.677 180.5 137.444C180.5 138.096 180.5 138.787 180.5 139.477C180.5 139.592 180.5 139.669 180.5 139.784C177.961 141.203 175.692 142.66 173.73 144.002C173.384 142.43 173.269 140.896 173.23 139.324C173.23 127.665 181.384 117.119 193.269 114.511C194.5 114.243 195.73 114.205 196.923 114.128H196.961Z" fill="#FFC200"/>
<path d="M207.692 162.985C206.538 163.407 205.423 163.829 204.192 164.097C196.769 165.708 189.384 163.944 183.692 159.764C182.307 158.766 181 157.616 179.846 156.312C176.923 153.167 174.846 149.256 173.846 144.807C173.769 144.539 173.73 144.309 173.73 144.002C175.692 142.621 177.961 141.202 180.5 139.784C180.577 140.934 180.769 142.046 181.038 143.235C182.038 147.799 184.23 151.825 187.269 155.008C188.423 156.197 189.654 157.348 191.038 158.268C195.692 161.681 201.577 163.407 207.692 163.023V162.985Z" fill="#FFC200"/>
<path d="M220.769 126.707C214.154 127.167 205.193 129.314 195.693 132.881C190 134.99 184.885 137.406 180.539 139.745C180.423 138.211 180.423 136.601 180.616 135.105C181.577 125.748 187.846 117.503 196.923 114.09C205.154 113.438 212.923 116.889 218.039 122.833C219.077 124.022 219.962 125.249 220.769 126.668V126.707Z" fill="#FFDA00"/>
<path d="M223.577 133.916C224 135.757 224.192 137.521 224.192 139.323C224.192 141.126 223.961 142.851 223.615 144.577C221.884 152.822 216 159.84 207.73 162.985C201.615 163.407 195.73 161.643 191.077 158.23C189.692 157.309 188.461 156.197 187.307 154.97C184.269 151.787 182.115 147.76 181.077 143.197C180.807 142.046 180.615 140.896 180.538 139.745C184.884 137.406 190 134.99 195.692 132.881C205.192 129.276 214.153 127.167 220.769 126.706C222.077 128.854 223 131.27 223.577 133.916Z" fill="#FFDA00"/>
<path d="M10.5771 193.588C6.15405 173.762 1.23097 137.598 14.3464 96.6025C21.3079 74.8584 34.1156 34.6682 73.654 13.1541C92.2694 2.99153 110.693 0.383765 123.5 0.0386197C110.846 -0.306525 89.5002 1.30415 67.7694 13.1158C28.2694 34.6298 15.4233 74.82 8.46174 96.5642C-4.65365 137.598 0.269431 173.762 4.69251 193.588C4.69251 224.766 30.8848 250.039 63.231 250.039C64.231 250.039 65.1925 249.962 66.154 249.885C35.1925 248.39 10.5387 223.808 10.5387 193.588H10.5771Z" fill="#000CA3"/>
<path d="M65.7693 137.253C64.9232 137.253 64.077 137.138 63.2308 137.138C59.2693 137.138 55.4232 137.56 51.6924 138.289C51.6924 138.749 51.6924 139.247 51.6924 139.708C56.1924 138.365 60.9232 137.522 65.8078 137.253H65.7693Z" fill="black"/>
<path d="M185.77 41.6469C183.539 40.4964 164.385 31.1392 139.77 31.9445C161.5 32.5964 177.846 40.6115 179.885 41.6469C205.423 54.7241 217.077 76.2764 220.885 84.0997C220.539 80.4565 219.808 75.5478 218.27 69.8721C211.654 60.6682 201.27 49.5852 185.77 41.6469Z" fill="black"/>
<path d="M121.769 193.589C121.769 223.808 97.1151 248.39 66.1535 249.886C67.1151 249.924 68.1151 250.039 69.0766 250.039C101.423 250.039 127.615 224.767 127.615 193.589C127.615 162.41 101.423 137.138 69.0766 137.138C67.9612 137.138 66.8459 137.215 65.7305 137.253C96.8843 138.557 121.73 163.216 121.73 193.589H121.769Z" fill="#000CA3"/>
<path d="M185.77 41.6481C201.27 49.5864 211.654 60.6694 218.27 69.8733C216.731 64.2359 214.385 57.8315 210.77 51.1971C203.077 37.0845 193.5 28.9161 188.423 24.6593C166.039 5.94475 141.539 1.84136 133.962 0.844279C132.27 0.614182 128.577 0.192338 123.5 0.0389404C110.654 0.384085 92.2696 2.99185 73.6157 13.1161C34.1157 34.6301 21.2696 74.8204 14.3465 96.5645C1.23112 137.598 6.1542 173.762 10.5773 193.55C10.5773 223.77 35.2311 248.352 66.1927 249.847C97.1542 248.352 121.808 223.77 121.808 193.55C121.808 163.331 96.9619 138.519 65.808 137.215C60.9234 137.483 56.1927 138.289 51.6927 139.669C51.6927 139.209 51.6927 138.711 51.6927 138.25C49.6927 138.634 47.6927 139.094 45.7696 139.669C45.7696 131.386 46.5773 121.76 49.1542 111.329C52.5388 97.5999 62.1927 58.1767 100.077 40.0758C114 33.4413 127.731 31.5622 139.808 31.9457C164.423 31.1403 183.577 40.4976 185.808 41.6481H185.77Z" fill="#0043FF"/>
<path d="M117.308 36.3553C122.923 35.2048 160.885 28.1868 191.346 53.4208C206.923 66.3445 213.769 82.0678 216.654 90.428C217.654 90.6581 241 96.4488 248.115 119.305C252.885 134.722 248.385 151.634 236.538 162.908C237.423 161.528 249.692 141.586 240.692 122.603C232.077 104.541 207.654 94.7615 183.961 103.198C181.808 94.8382 177.308 82.0678 167.385 69.3358C149.692 46.5946 126.269 38.8096 117.308 36.3169V36.3553Z" fill="#0098FF"/>
<path d="M218.039 122.871C219.077 124.06 219.962 125.287 220.769 126.706C226.692 126.285 230.731 127.128 231.616 129.391C232.539 131.807 229.616 135.488 224.192 139.285C218.885 143.082 211.231 147.032 202.308 150.368C197.077 152.324 191.923 153.858 187.308 154.932C184.616 155.507 182.154 155.929 179.885 156.274C172.539 157.194 167.462 156.427 166.5 153.858C165.577 151.442 168.462 147.837 173.808 143.964C173.462 142.391 173.346 140.857 173.308 139.285C163.577 145.574 158.039 152.017 159.654 156.389C161.423 161.029 171.039 162.065 183.769 159.725C186.077 159.342 188.539 158.843 191.077 158.191C195.154 157.117 199.423 155.737 203.808 154.126C211.308 151.327 218.116 147.952 223.616 144.539C234.116 138.096 240.192 131.347 238.5 126.821C236.885 122.641 228.923 121.337 218.077 122.833L218.039 122.871Z" fill="#FFAD08"/>
<path d="M189.097 131.42C190.57 131.098 191.55 129.863 191.286 128.664C191.021 127.464 189.613 126.753 188.14 127.075C186.667 127.398 185.687 128.632 185.951 129.832C186.216 131.032 187.624 131.743 189.097 131.42Z" fill="white"/>
<path d="M186.007 137.295C187.189 137.035 187.978 136.054 187.769 135.103C187.559 134.151 186.43 133.59 185.248 133.849C184.065 134.108 183.276 135.089 183.486 136.041C183.696 136.992 184.824 137.554 186.007 137.295Z" fill="white"/>
<g opacity="0.87">
<path d="M95.6915 186.417C80.3838 197.653 76.3069 204.594 73.9992 223.424C62.7299 208.161 55.7684 204.096 36.8838 201.795C52.1915 190.558 56.2684 183.617 58.5761 164.788C69.8453 180.051 76.8069 184.116 95.6915 186.417Z" fill="black"/>
</g>
<path d="M95.1534 185.88C79.8457 197.116 75.7688 204.058 73.4611 222.887C62.1919 207.624 55.2303 203.559 36.3457 201.258C51.6534 190.022 55.7303 183.08 58.038 164.251C69.3072 179.514 76.2688 183.579 95.1534 185.88Z" fill="white"/>
<path d="M230.077 181.623C223.5 180.626 220.769 181.355 215.539 185.458C216.539 178.9 215.808 176.178 211.692 170.962C218.269 171.959 221 171.231 226.231 167.127C225.231 173.685 225.962 176.408 230.077 181.623Z" fill="#FFDA00"/>
</svg>
