<svg width="210" height="98" viewBox="0 0 210 98" fill="none" xmlns="http://www.w3.org/2000/svg">
<path d="M59.0362 75.871H49.873V9.04217C49.873 6.28075 52.1116 4.04218 54.873 4.04218H76.5059C83.6565 4.04218 86.825 7.28067 86.9106 14.4821V24.5385C86.8678 30.5894 83.0999 33.5723 75.7352 33.6149H59.0362V49.1282V75.871ZM59.0789 12.0533V25.476H72.9092C76.72 25.4334 77.5764 24.709 77.6192 21.4705V16.7832C77.5764 13.289 76.0349 12.0958 71.6674 12.0106H59.0789V12.0533Z" fill="#F4B30C"/>
<path d="M164.55 4L164.421 12.0111H143.654C138.516 12.0963 137.446 13.2468 137.403 18.6585V33.0614C137.489 37.1095 138.431 37.8339 143.654 37.8765H164.678L164.55 45.9728H140.914C131.28 45.9302 128.325 43.5013 128.111 35.4477V16.2296C128.197 11.798 129.139 9.0282 131.366 6.98283C133.935 4.63917 135.947 4.08522 142.156 4L164.55 4.04267V4Z" fill="#F4B30C"/>
<path d="M205 45.9728H175.641C172.879 45.9728 170.641 43.7343 170.641 40.9728V9.00001C170.641 6.23858 172.879 4 175.641 4H205V12.0111H179.641V19.9795H203.097V28.0757H179.641V37.8765H205V45.9728Z" fill="#F4B30C"/>
<path fill-rule="evenodd" clip-rule="evenodd" d="M82.5127 45.9728L104.307 4L126.144 45.9728H82.5127ZM112.357 37.1526L104.307 21.6419L96.2572 37.1526H112.357Z" fill="#F4B30C"/>
<g filter="url(#filter0_d_1008_2215)">
<path d="M42.0435 5.11438L37.4567 13.168H18.3592C15.1907 13.2107 14.5912 14.9 14.5484 17.3715V21.8286C14.5912 23.7888 15.2335 25.2587 19.1299 25.3013H32.2322C37.2848 25.3439 38.184 25.4717 39.8967 26.4092C42.1232 27.7728 42.8939 29.4347 42.9367 32.9715L42.9367 66.0921C42.8939 69.7567 41.3525 72.7822 38.9118 73.9753C36.8137 74.998 34.5444 75.2964 28.9353 75.339H20.2432V67.2426H26.9656C32.5747 67.2 33.1743 66.9444 33.2171 64.7286V36.636C33.1743 33.9941 32.1038 33.4828 26.4946 33.3976H14.2059C7.86878 33.3549 5.08564 31.1391 5 26.1535L5.00002 14.5316C5.17129 7.92673 7.78312 5.28483 14.2915 5.11438H42.0435Z" fill="url(#paint0_linear_1008_2215)" shape-rendering="crispEdges"/>
<path d="M42.478 5.36182L42.9037 4.61438H42.0435H14.2915V4.61421L14.2784 4.61455C10.9732 4.70111 8.53524 5.41586 6.91349 7.05884C5.29326 8.70028 4.58707 11.1679 4.50018 14.5186L4.50002 14.5186L4.50002 14.5316L4.5 26.1535H4.49993L4.50007 26.1621C4.54449 28.7481 5.29412 30.716 6.94892 32.0217C8.57797 33.3071 10.9941 33.876 14.2025 33.8976H14.2059H26.4908C27.8874 33.9188 28.9849 33.9665 29.8489 34.0648C30.7185 34.1637 31.3143 34.3102 31.7264 34.5086C32.1201 34.698 32.343 34.9324 32.4834 35.2368C32.6334 35.5621 32.7065 36.0051 32.7171 36.6402V64.7237C32.7063 65.27 32.6594 65.6108 32.5543 65.8466C32.4651 66.0467 32.3189 66.2046 31.9913 66.337C31.6376 66.48 31.0992 66.5812 30.2646 66.6449C29.4382 66.708 28.365 66.732 26.9638 66.7426H20.2432H19.7432V67.2426V75.339V75.839H20.2432L28.9353 75.839L28.9391 75.839C34.5438 75.7964 36.9194 75.5028 39.1309 74.4248L39.1314 74.4245C41.8016 73.1192 43.3926 69.8741 43.4367 66.0979H43.4367V66.0921L43.4368 32.9715L43.4367 32.9654C43.415 31.1704 43.2094 29.7877 42.6893 28.6652C42.1614 27.526 41.3322 26.702 40.1578 25.9828L40.1474 25.9764L40.1368 25.9706C39.2414 25.4805 38.5313 25.1897 37.3883 25.0248C36.2781 24.8646 34.7545 24.8226 32.2364 24.8013V24.8013H32.2322H19.1328C17.2268 24.7801 16.2516 24.4071 15.7377 23.9208C15.2363 23.4465 15.0695 22.7654 15.0484 21.8231V17.3758C15.0699 16.1547 15.2331 15.2582 15.682 14.6585C16.1047 14.0937 16.8655 13.6888 18.3626 13.668H37.4567H37.7474L37.8912 13.4155L42.478 5.36182Z" stroke="#6981FF" shape-rendering="crispEdges"/>
</g>
<g filter="url(#filter1_d_1008_2215)">
<path d="M51.1755 92.8457H5.04199V40.2142H14.5049V84.7494H55.9227L51.1755 92.8457Z" fill="url(#paint1_linear_1008_2215)" shape-rendering="crispEdges"/>
<path d="M51.1755 93.3457H51.4619L51.6068 93.0986L56.3541 85.0023L56.7955 84.2494H55.9227H15.0049V40.2142V39.7142H14.5049H5.04199H4.54199V40.2142V92.8457V93.3457H5.04199H51.1755Z" stroke="#6981FF" shape-rendering="crispEdges"/>
</g>
<g filter="url(#filter2_d_1008_2215)">
<path d="M118.548 92.8885H109.085V51.5975H120.303L136.788 77.8038V51.5975H146.422V92.8885H135.461L118.591 67.1082V92.8885H118.548Z" fill="url(#paint2_linear_1008_2215)" shape-rendering="crispEdges"/>
<path d="M108.585 92.8885V93.3885H109.085H118.548H118.591H119.091V92.8885V68.7854L135.043 93.1623L135.191 93.3885H135.461H146.422H146.922V92.8885V51.5975V51.0975H146.422H136.788H136.288V51.5975V76.0699L120.727 51.3312L120.579 51.0975H120.303H109.085H108.585V51.5975V92.8885Z" stroke="#6981FF" shape-rendering="crispEdges"/>
</g>
<g filter="url(#filter3_d_1008_2215)">
<path d="M203.923 50.9166L199.585 58.9277H172.37C165.348 58.9703 164.363 59.8651 164.192 66.0439V79.3388C164.277 84.1113 164.963 84.7505 169.673 84.7931H189.108C193.776 84.7505 194.546 84.2818 194.589 81.299V75.4611H178.476V67.3648H203.881V79.6797C203.838 85.8158 203.324 87.9038 201.568 89.8214C199.727 91.7815 196.387 92.8468 192.277 92.8468H166.333C161.923 92.7616 159.182 91.7389 157.084 89.31C155.286 87.1794 154.943 85.7306 154.857 81.1285V62.9758C154.943 57.8198 155.842 55.4335 158.454 53.3881C160.766 51.5984 159.654 50.9166 186.116 50.874H199.585L203.923 50.9166Z" fill="url(#paint3_linear_1008_2215)" shape-rendering="crispEdges"/>
<path d="M204.363 51.1547L204.758 50.4248L203.928 50.4166L199.59 50.374V50.374H199.585L186.116 50.374L186.115 50.374C172.894 50.3953 166.524 50.5757 163.169 50.9795C161.488 51.1818 160.517 51.4448 159.808 51.7988C159.291 52.0561 158.912 52.3691 158.537 52.6784C158.409 52.7844 158.281 52.89 158.148 52.9927L158.148 52.9927L158.146 52.9945C156.779 54.0647 155.839 55.2443 155.24 56.8397C154.648 58.4166 154.401 60.37 154.357 62.9675L154.357 62.9675V62.9758V81.1285H154.357L154.358 81.1378C154.4 83.4375 154.507 85.0058 154.845 86.2749C155.191 87.5701 155.771 88.5294 156.702 89.6325L156.702 89.6325L156.706 89.6368C158.929 92.2112 161.831 93.2599 166.323 93.3467L166.323 93.3468H166.333H192.277C196.449 93.3468 199.955 92.2692 201.933 90.1637L201.933 90.1637L201.937 90.159C203.833 88.0878 204.338 85.8184 204.381 79.6832V79.6797V67.3648V66.8648H203.881H178.476H177.976V67.3648V75.4611V75.9611H178.476H194.089V81.2955C194.067 82.789 193.852 83.386 193.315 83.7263C193.014 83.917 192.563 84.0601 191.862 84.153C191.165 84.2452 190.268 84.2825 189.106 84.2931H169.675C168.502 84.2825 167.615 84.2343 166.936 84.1031C166.261 83.9729 165.838 83.7695 165.55 83.4841C165.261 83.1986 165.051 82.7766 164.912 82.0981C164.772 81.4155 164.713 80.5214 164.692 79.3343V66.0508C164.735 64.5137 164.828 63.3453 165.041 62.4467C165.252 61.5561 165.572 60.9713 166.041 60.5612C166.516 60.1455 167.201 59.8601 168.239 59.6814C169.277 59.5025 170.62 59.4383 172.371 59.4277H199.585H199.883L200.025 59.1658L204.363 51.1547Z" stroke="#6981FF" shape-rendering="crispEdges"/>
</g>
<g filter="url(#filter4_d_1008_2215)">
<mask id="path-13-outside-1_1008_2215" maskUnits="userSpaceOnUse" x="56.7207" y="49.4714" width="48" height="45" fill="black">
<rect fill="white" x="56.7207" y="49.4714" width="48" height="45"/>
<path fill-rule="evenodd" clip-rule="evenodd" d="M58.7207 92.6866L80.5451 52.4714L102.352 92.6866H58.7207ZM88.6091 82.7591L80.5593 67.2483L72.5095 82.7591H88.6091Z"/>
</mask>
<path fill-rule="evenodd" clip-rule="evenodd" d="M58.7207 92.6866L80.5451 52.4714L102.352 92.6866H58.7207ZM88.6091 82.7591L80.5593 67.2483L72.5095 82.7591H88.6091Z" fill="url(#paint4_linear_1008_2215)" shape-rendering="crispEdges"/>
<path d="M80.5451 52.4714L81.4241 51.9947L80.5454 50.3742L79.6662 51.9944L80.5451 52.4714ZM58.7207 92.6866L57.8418 92.2096L57.0402 93.6866H58.7207V92.6866ZM102.352 92.6866V93.6866H104.032L103.231 92.2099L102.352 92.6866ZM80.5593 67.2483L81.4469 66.7877L80.5593 65.0774L79.6717 66.7877L80.5593 67.2483ZM88.6091 82.7591V83.7591H90.2548L89.4967 82.2984L88.6091 82.7591ZM72.5095 82.7591L71.6219 82.2984L70.8639 83.7591H72.5095V82.7591ZM79.6662 51.9944L57.8418 92.2096L59.5996 93.1636L81.424 52.9484L79.6662 51.9944ZM103.231 92.2099L81.4241 51.9947L79.666 52.9481L101.473 93.1633L103.231 92.2099ZM58.7207 93.6866H102.352V91.6866H58.7207V93.6866ZM79.6717 67.709L87.7216 83.2197L89.4967 82.2984L81.4469 66.7877L79.6717 67.709ZM73.3971 83.2197L81.4469 67.709L79.6717 66.7877L71.6219 82.2984L73.3971 83.2197ZM88.6091 81.7591H72.5095V83.7591H88.6091V81.7591Z" fill="#6981FF" mask="url(#path-13-outside-1_1008_2215)"/>
</g>
<defs>
<filter id="filter0_d_1008_2215" x="0" y="0.11438" width="47.9365" height="80.2246" filterUnits="userSpaceOnUse" color-interpolation-filters="sRGB">
<feFlood flood-opacity="0" result="BackgroundImageFix"/>
<feColorMatrix in="SourceAlpha" type="matrix" values="0 0 0 0 0 0 0 0 0 0 0 0 0 0 0 0 0 0 127 0" result="hardAlpha"/>
<feOffset/>
<feGaussianBlur stdDeviation="2"/>
<feComposite in2="hardAlpha" operator="out"/>
<feColorMatrix type="matrix" values="0 0 0 0 0.207843 0 0 0 0 0.231373 0 0 0 0 0.866667 0 0 0 1 0"/>
<feBlend mode="normal" in2="BackgroundImageFix" result="effect1_dropShadow_1008_2215"/>
<feBlend mode="normal" in="SourceGraphic" in2="effect1_dropShadow_1008_2215" result="shape"/>
</filter>
<filter id="filter1_d_1008_2215" x="0.0419922" y="35.2142" width="61.626" height="62.6315" filterUnits="userSpaceOnUse" color-interpolation-filters="sRGB">
<feFlood flood-opacity="0" result="BackgroundImageFix"/>
<feColorMatrix in="SourceAlpha" type="matrix" values="0 0 0 0 0 0 0 0 0 0 0 0 0 0 0 0 0 0 127 0" result="hardAlpha"/>
<feOffset/>
<feGaussianBlur stdDeviation="2"/>
<feComposite in2="hardAlpha" operator="out"/>
<feColorMatrix type="matrix" values="0 0 0 0 0.207843 0 0 0 0 0.231373 0 0 0 0 0.866667 0 0 0 1 0"/>
<feBlend mode="normal" in2="BackgroundImageFix" result="effect1_dropShadow_1008_2215"/>
<feBlend mode="normal" in="SourceGraphic" in2="effect1_dropShadow_1008_2215" result="shape"/>
</filter>
<filter id="filter2_d_1008_2215" x="104.085" y="46.5975" width="47.3369" height="51.291" filterUnits="userSpaceOnUse" color-interpolation-filters="sRGB">
<feFlood flood-opacity="0" result="BackgroundImageFix"/>
<feColorMatrix in="SourceAlpha" type="matrix" values="0 0 0 0 0 0 0 0 0 0 0 0 0 0 0 0 0 0 127 0" result="hardAlpha"/>
<feOffset/>
<feGaussianBlur stdDeviation="2"/>
<feComposite in2="hardAlpha" operator="out"/>
<feColorMatrix type="matrix" values="0 0 0 0 0.207843 0 0 0 0 0.231373 0 0 0 0 0.866667 0 0 0 1 0"/>
<feBlend mode="normal" in2="BackgroundImageFix" result="effect1_dropShadow_1008_2215"/>
<feBlend mode="normal" in="SourceGraphic" in2="effect1_dropShadow_1008_2215" result="shape"/>
</filter>
<filter id="filter3_d_1008_2215" x="149.857" y="45.874" width="59.7354" height="51.9728" filterUnits="userSpaceOnUse" color-interpolation-filters="sRGB">
<feFlood flood-opacity="0" result="BackgroundImageFix"/>
<feColorMatrix in="SourceAlpha" type="matrix" values="0 0 0 0 0 0 0 0 0 0 0 0 0 0 0 0 0 0 127 0" result="hardAlpha"/>
<feOffset/>
<feGaussianBlur stdDeviation="2"/>
<feComposite in2="hardAlpha" operator="out"/>
<feColorMatrix type="matrix" values="0 0 0 0 0.207843 0 0 0 0 0.231373 0 0 0 0 0.866667 0 0 0 1 0"/>
<feBlend mode="normal" in2="BackgroundImageFix" result="effect1_dropShadow_1008_2215"/>
<feBlend mode="normal" in="SourceGraphic" in2="effect1_dropShadow_1008_2215" result="shape"/>
</filter>
<filter id="filter4_d_1008_2215" x="53.04" y="46.3742" width="54.9922" height="51.3124" filterUnits="userSpaceOnUse" color-interpolation-filters="sRGB">
<feFlood flood-opacity="0" result="BackgroundImageFix"/>
<feColorMatrix in="SourceAlpha" type="matrix" values="0 0 0 0 0 0 0 0 0 0 0 0 0 0 0 0 0 0 127 0" result="hardAlpha"/>
<feOffset/>
<feGaussianBlur stdDeviation="2"/>
<feComposite in2="hardAlpha" operator="out"/>
<feColorMatrix type="matrix" values="0 0 0 0 0.207843 0 0 0 0 0.231373 0 0 0 0 0.866667 0 0 0 1 0"/>
<feBlend mode="normal" in2="BackgroundImageFix" result="effect1_dropShadow_1008_2215"/>
<feBlend mode="normal" in="SourceGraphic" in2="effect1_dropShadow_1008_2215" result="shape"/>
</filter>
<linearGradient id="paint0_linear_1008_2215" x1="23.9684" y1="5.11438" x2="22.5962" y2="86.2183" gradientUnits="userSpaceOnUse">
<stop stop-color="#0043FF" stop-opacity="0.93"/>
<stop offset="0.802408" stop-color="#090D19"/>
</linearGradient>
<linearGradient id="paint1_linear_1008_2215" x1="30.4824" y1="40.2142" x2="29.9076" y2="101.011" gradientUnits="userSpaceOnUse">
<stop stop-color="#0043FF" stop-opacity="0.93"/>
<stop offset="0.802408" stop-color="#090D19"/>
</linearGradient>
<linearGradient id="paint2_linear_1008_2215" x1="127.754" y1="51.5975" x2="127.272" y2="99.2942" gradientUnits="userSpaceOnUse">
<stop stop-color="#0043FF" stop-opacity="0.93"/>
<stop offset="0.802408" stop-color="#090D19"/>
</linearGradient>
<linearGradient id="paint3_linear_1008_2215" x1="179.39" y1="50.874" x2="179.011" y2="99.3602" gradientUnits="userSpaceOnUse">
<stop stop-color="#0043FF" stop-opacity="0.93"/>
<stop offset="0.802408" stop-color="#090D19"/>
</linearGradient>
<linearGradient id="paint4_linear_1008_2215" x1="80.5365" y1="52.4714" x2="80.1452" y2="98.9268" gradientUnits="userSpaceOnUse">
<stop stop-color="#0043FF" stop-opacity="0.93"/>
<stop offset="0.802408" stop-color="#090D19"/>
</linearGradient>
</defs>
</svg>
